<svg display="none" xmlns="http://www.w3.org/2000/svg">
	<symbol id="Authenticitiy"  viewBox="0 0 70 70">
		<g>
			<circle cx="35" cy="35" r="35" fill="var(--color-Authenticitiy-circle)" fill-opacity="0.2"/>
			<path fill-rule="evenodd" clip-rule="evenodd" d="M29.4251 40.1036C29.4251 37.0534 31.9067 34.5718 34.957 34.5718C38.0073 34.5718 40.4889 37.0534 40.4889 40.1036C40.4889 43.1539 38.0073 45.6355 34.957 45.6355C31.9067 45.6355 29.4251 43.1539 29.4251 40.1036ZM31.1225 40.7647L33.8596 43.5018L38.7915 38.5699L37.5485 37.327L33.8596 41.0159L32.3654 39.5217L31.1225 40.7647Z" fill="var(--color-Authenticitiy-1)"/>
			<path d="M40.5768 23.4232H38.3803C38.3802 21.5326 36.8476 20 34.957 20C33.0664 20 31.5338 21.5326 31.5338 23.4232H29.3372V27.8115H40.5767V23.4232H40.5768Z" fill="var(--color-Authenticitiy-2)"/>
			<path fill-rule="evenodd" clip-rule="evenodd" d="M42.3346 29.5694V23.4233H45.8736V50.0001H24.0404V23.4233H27.5794V29.5694H42.3346ZM27.6673 40.1039C27.6673 44.1234 30.9374 47.3936 34.957 47.3936C38.9766 47.3936 42.2467 44.1234 42.2467 40.1039C42.2467 36.0844 38.9765 32.8142 34.957 32.8142C30.9375 32.8142 27.6673 36.0843 27.6673 40.1039Z" fill="var(--color-Authenticitiy-3)"/>
		</g>		
	</symbol>
	<symbol id="building"	viewBox="0 0 45 45">
		<g>
			<circle cx="22.5" cy="22.5" r="22.5" fill="var(--color-building-circle)" fill-opacity="0.2"/>
			<path fill-rule="evenodd" clip-rule="evenodd" d="M19.6024 32.7964V28.5415H25.875V32.7964H30.6021V9.87805H14.8746V32.7964H19.6024ZM25.875 11.9835H28.5206V14.6584H25.875V11.9835ZM28.5206 15.8722H25.875V18.5479H28.5206V15.8722ZM25.875 19.7616H28.5206V22.4359H25.875V19.7616ZM28.5206 23.6496H25.875V26.3261H28.5206V23.6496ZM21.4163 11.9835H24.0626V14.6584H21.4163V11.9835ZM24.0626 15.8722H21.4163V18.5479H24.0626V15.8722ZM21.4163 19.7616H24.0626V22.4359H21.4163V19.7616ZM24.0626 23.6496H21.4163V26.3261H24.0626V23.6496ZM16.9576 11.9835H19.6032V14.6584H16.9576V11.9835ZM19.6032 15.8722H16.9576V18.5479H19.6032V15.8722ZM16.9576 19.7616H19.6032V22.4359H16.9576V19.7616ZM19.6032 23.6496H16.9576V26.3261H19.6032V23.6496Z" fill="var(--color-building-1)"/>
		</g>
	</symbol>
	<symbol id="Enterpreneurship" viewBox="0 0 71 70">
		<g>
			<circle cx="35.5" cy="35" r="35" fill="var(--color-Enterpreneurship-circle)"/>
			<path d="M39.75 20H46.5V27.5H39.75V20Z" fill="var(--color-Enterpreneurship-1)"/>
			<path d="M24 20H30.75V27.5H24V20Z" fill="var(--color-Enterpreneurship-2)"/>
			<ellipse cx="35.625" cy="41" rx="4.125" ry="3.75" fill="var(--color-Enterpreneurship-ellipse)"/>
			<path fill-rule="evenodd" clip-rule="evenodd" d="M26.25 41.375C26.25 36.6116 30.2794 32.75 35.25 32.75C40.2206 32.75 44.25 36.6116 44.25 41.375C44.25 46.1384 40.2206 50 35.25 50C30.2794 50 26.25 46.1384 26.25 41.375ZM29.3931 41.375C29.3931 44.4699 32.0205 46.9878 35.25 46.9878C38.4795 46.9878 41.1069 44.4699 41.1069 41.375C41.1069 38.2801 38.4795 35.7622 35.25 35.7622C32.0205 35.7622 29.3931 38.28 29.3931 41.375Z" fill="var(--color-Enterpreneurship-3)"/>
			<path d="M31.3477 31.3905C32.1222 31.0495 32.9259 30.8114 33.75 30.6768L32.1394 29H25.5L29.1021 32.75C29.791 32.2009 30.5421 31.7453 31.3477 31.3905Z" fill="var(--color-Enterpreneurship-4)"/>
			<path d="M36.75 30.6768C37.5741 30.8113 38.3778 31.0494 39.1523 31.3905C39.9579 31.7452 40.709 32.2008 41.3979 32.75L45 29H38.3606C37.9268 29.4516 37.3201 30.0832 36.75 30.6768Z" fill="var(--color-Enterpreneurship-5)"/>
		</g>
	</symbol>
	<symbol id="Kindness" viewBox="0 0 70 70">
		<g>
			<circle cx="35" cy="35" r="35" fill="var(--color-Kindness-circle)" fill-opacity="0.2"/>
			<path d="M51.2621 30.8582H43.8782C41.6847 30.8582 39.9066 32.6363 39.9066 34.8298V46.0229C39.9066 48.2164 41.6847 49.9946 43.8782 49.9946H52.1644L53.5631 33.3609C53.6764 32.0139 52.6137 30.8582 51.2621 30.8582Z" fill="var(--color-Kindness-1)"/>
			<path d="M35.935 20.0054H34.0918L33.3796 28.8327C33.1773 31.3401 31.0833 33.2719 28.5677 33.2719H27.1838V47.5808H31.8753C31.8753 47.615 31.8753 47.6491 31.8752 47.6829C31.8738 48.9593 32.908 49.9945 34.1844 49.9945H39.2349C38.3189 48.9252 37.7637 47.538 37.7637 46.0229V34.8297C37.7637 32.9734 38.5963 31.3087 39.9066 30.1864V23.9769C39.9066 21.7835 38.1284 20.0054 35.935 20.0054V20.0054Z" fill="var(--color-Kindness-2)"/>
			<path d="M17 31.8374H25.0409V49.0155H17V31.8374Z" fill="var(--color-Kindness-3)"/>
		</g>
	</symbol>
	<symbol id="Logo" viewBox="0 0 26 30">
		<g>
			<path fill-rule="evenodd" clip-rule="evenodd" d="M15 15L25.5987 4.38545C19.7788 -1.42579 10.209 -1.42223 4.3934 4.3934C-1.42523 10.212 -1.42523 19.788 4.3934 25.6066C10.212 31.4252 19.788 31.4252 25.6066 25.6066L15 15Z" fill="var(--color-Logo)"/>
		</g>
	</symbol>
	<symbol id="Logoipsum" viewBox="0 0 41 42">
		<g>
			<path fill-rule="evenodd" clip-rule="evenodd" d="M27.2 28C34.7111 28 40.8 21.732 40.8 14C40.8 6.26801 34.7111 0 27.2 0C19.8189 0 13.8111 6.05299 13.6054 13.6C13.6036 13.6 13.6018 13.6 13.6 13.6C6.08893 13.6 0 19.868 0 27.6C0 35.332 6.08893 41.6 13.6 41.6C20.9811 41.6 26.9889 35.547 27.1946 28C27.1964 28 27.1982 28 27.2 28ZM13.6 14C13.6 21.7301 19.686 27.997 27.1946 28C27.1982 27.8671 27.2 27.7338 27.2 27.6C27.2 19.8699 21.114 13.603 13.6054 13.6C13.6018 13.7329 13.6 13.8662 13.6 14Z" fill="var(--color-Logoipsum)"/>
		</g>
	</symbol>
	<symbol id="Logoipsum2" viewBox="0 0 28 33">
		<g>
			<path d="M0 0.400024V2.80002H28V0.400024H0Z" fill="var(--color-Logoipsum2-1)"/>
			<path d="M0 5.20001V7.60001H28V5.20001H0Z" fill="var(--color-Logoipsum2-2)"/>
			<path d="M0 10V12.4H28V10H0Z" fill="var(--color-Logoipsum2-3)"/>
			<path d="M0 14.8V17.2H28V14.8H0Z" fill="var(--color-Logoipsum2-4)"/>
			<path d="M0 19.6V22H28V19.6H0Z" fill="var(--color-Logoipsum2-5)"/>
			<path d="M0 24.4V26.8H28V24.4H0Z" fill="var(--color-Logoipsum2-6)"/>
			<path d="M0 29.2V31.6H28V29.2H0Z" fill="var(--color-Logoipsum2-7)"/>
		</g>
	</symbol>
	<symbol id="Logoipsum3" viewBox="0 0 42 42">
		<g>
			<path fill-rule="evenodd" clip-rule="evenodd" d="M20.72 0L41.44 41.44H30.8074C16.6534 41.44 7.44762 26.5448 13.7775 13.885L20.72 0Z" fill="var(--color-Logoipsum3-1)"/>
			<circle cx="5.88" cy="35.56" r="5.88" fill="var(--color-Logoipsum3-circle)"/>
		</g>
	</symbol>
	<symbol id="Logoipsum4" viewBox="0 0 30 28">
		<g>
			<path fill-rule="evenodd" clip-rule="evenodd" d="M15.2 22.8L6.26566 27.4971L7.97197 17.5485L0.743941 10.5029L10.7328 9.05147L15.2 0L19.6672 9.05147L29.6561 10.5029L22.428 17.5485L24.1343 27.4971L15.2 22.8Z" fill="var(--color-Logoipsum4-1)"/>
		</g>
	</symbol>
	<symbol id="mail" viewBox="0 0 24 19">
		<g>
			<path d="M21.8906 0H2.10938C1.78467 0 1.48069 0.0798281 1.20567 0.211406L11.9531 10.9589L14.362 8.64384C14.362 8.64384 14.3622 8.64361 14.3622 8.64352C14.3623 8.64342 14.3625 8.64333 14.3625 8.64333L22.7947 0.211594C22.5196 0.0799219 22.2154 0 21.8906 0Z" fill="var(--color-mail-1)"/>
			<path d="M23.7889 1.20599L15.8537 9.14071L23.7886 17.0756C23.9202 16.8006 24 16.4966 24 16.1719V2.10937C24 1.78485 23.9204 1.48092 23.7889 1.20599Z" fill="var(--color-mail-2)"/>
			<path d="M0.211406 1.20566C0.0798281 1.48067 0 1.78466 0 2.10936V16.1719C0 16.4964 0.0797344 16.8004 0.211219 17.0753L8.14636 9.14061L0.211406 1.20566Z" fill="var(--color-mail-3)"/>
			<path d="M14.8595 10.135L12.4503 12.4503C12.3129 12.5876 12.133 12.6563 11.9532 12.6563C11.7733 12.6563 11.5934 12.5876 11.4561 12.4503L9.14063 10.1349L1.20535 18.0697C1.48041 18.2013 1.78458 18.2812 2.10938 18.2812H21.8906C22.2153 18.2812 22.5193 18.2014 22.7943 18.0698L14.8595 10.135Z" fill="var(--color-mail-4)"/>
		</g>
	</symbol>
	<symbol id="Perfomance" viewBox="0 0 70 70">
		<g>
			<circle cx="35" cy="35" r="35" fill="var(--color-Perfomance-circle)" fill-opacity="0.2"/>
			<path fill-rule="evenodd" clip-rule="evenodd" d="M48.7173 47.7317V26.8294L51.6967 23.8719V27.6609H53.9819V20H46.2636V22.2682H50.0809L46.1246 26.1951L40.7973 20.9074L28.0016 33.6081L22.8314 28.4763L15.5451 35.7085L17.1609 37.3123L20.4751 34.0228V47.7318H15.0962V50H54.0962V47.7318H48.7173V47.7317ZM42.6235 25.9278V47.7317H37.643V27.246L40.7973 24.1152L42.6235 25.9278ZM28.0016 36.8159L26.5688 35.3936V47.7317H31.5493V33.2945L28.0016 36.8159Z" fill="var(--color-Perfomance-1)"/>
		</g>
	</symbol>
	<symbol id="right" viewBox="0 0 11 12">
		<g>
			<path fill-rule="evenodd" clip-rule="evenodd" d="M10.2111 5.10557C10.9482 5.4741 10.9482 6.5259 10.2111 6.89443L1.44721 11.2764C0.782312 11.6088 0 11.1253 0 10.382V1.61803C0 0.874652 0.782312 0.391156 1.44721 0.723607L10.2111 5.10557Z" fill="var(--color-right-1)"/>
		</g>
	</symbol>	
	<symbol id="close" viewBox="0 0 330 330">
		<g>
			<path id="XMLID_29_" d="M165,0C120.926,0,79.492,17.163,48.328,48.327c-64.334,64.333-64.334,169.011-0.002,233.345
			C79.49,312.837,120.926,330,165,330c44.072,0,85.508-17.163,116.672-48.328c64.334-64.334,64.334-169.012,0-233.345
			C250.508,17.163,209.072,0,165,0z M239.246,239.245c-2.93,2.929-6.768,4.394-10.607,4.394c-3.838,0-7.678-1.465-10.605-4.394
			L165,186.213l-53.033,53.033c-2.93,2.929-6.768,4.394-10.607,4.394c-3.838,0-7.678-1.465-10.605-4.394
			c-5.859-5.857-5.859-15.355,0-21.213L143.787,165l-53.033-53.033c-5.859-5.857-5.859-15.355,0-21.213
			c5.857-5.857,15.355-5.857,21.213,0L165,143.787l53.031-53.033c5.857-5.857,15.355-5.857,21.213,0
			c5.859,5.857,5.859,15.355,0,21.213L186.213,165l53.033,53.032C245.104,223.89,245.104,233.388,239.246,239.245z" fill="var(--color-close)" />
		</g>
	</symbol>
	<symbol id="seller" viewBox="0 0 70 70">
		<g>
			<path fill-rule="evenodd" clip-rule="evenodd" d="M44.1291 9.47871H70V46.5295H44.1293V70H25.8709V46.5295H0V9.47871H25.8709V5.4775L35 0L44.1291 5.4775V9.47871ZM35 4.78311L29.9724 7.79967H29.9723V9.47857H40.0276V7.79967L35 4.78311ZM40.0276 65.8984H29.9723V46.5295H40.0276V65.8984ZM4.10156 42.4279H65.8984V13.5803H4.10156V42.4279Z" fill="var(--color-seller-1)"/>
			<path fill-rule="evenodd" clip-rule="evenodd" d="M27.0711 33.2502L25.5651 37.2041L21.7322 35.7444L28.1006 19.0238L31.5056 19.0203L37.8199 35.7525L33.9826 37.2006L32.4919 33.2502H27.0711ZM28.6334 29.1487H30.9441L29.7941 26.1012L28.6334 29.1487Z" fill="var(--color-seller-2)"/>
			<path d="M48.2624 32.5099H43.473V18.844H39.3715V36.6114H48.2624V32.5099Z" fill="var(--color-seller-3)"/>
			<path d="M60.4445 32.5098H54.7341V29.8352H60.0234V25.7336H54.7341V23.0588H60.4445V18.9573H50.6326V36.6114H60.4445V32.5098Z" fill="var(--color-seller-4)"/>
			<path d="M14.4225 23.0678C15.9685 22.382 18.2923 24.0499 19.5359 25.17L22.0805 21.9531C18.3441 18.535 15.2096 18.5089 13.2177 19.147C11.233 19.7464 9.82463 21.3159 9.53574 23.2573C9.25834 25.121 10.0587 26.9133 11.6248 27.9342C11.8963 28.1112 13.7677 28.911 16.014 29.7538C16.8487 30.0615 17.7009 30.6126 17.5896 31.2358C17.4978 31.7496 16.7818 32.5097 15.5361 32.5097C13.5222 32.6266 12.0289 30.9845 10.9122 29.6363L7.87311 32.3907C9.74971 34.7916 12.2987 36.6792 15.5362 36.6113C18.5841 36.6113 21.1458 34.6538 21.6274 31.9567C21.9922 29.9139 21.0821 27.2513 17.4334 25.9055C15.813 25.3078 14.3003 24.6581 13.7753 24.429C13.4052 23.9655 13.5457 23.426 14.4225 23.0678Z" fill="var(--color-seller-5)"/>
		</g>
	</symbol>
	<symbol id="buyers" viewBox="0 0 70 70">
		<g>
			<path fill-rule="evenodd" clip-rule="evenodd" d="M27.3453 24.552L24.3061 27.3064C26.4592 29.9887 29.374 32.2086 32.9494 32.9195V37.0803H37.0509V33.2026C40.956 32.9356 44.9176 29.99 45.582 26.0752C46.5093 20.7601 41.8484 17.5786 37.0509 16.1039V8.04844C39.1232 8.26309 41.4574 9.92354 43.1428 11.3681L45.6873 8.15111C43.3295 5.96211 39.4961 3.97654 37.0508 3.91256V0.00732422H32.9492V4.1432C29.7258 4.83363 27.0752 7.39465 26.6444 10.536C26.2523 15.0449 28.3589 17.2827 32.9492 18.8772V28.6894C29.3537 27.722 27.3453 24.552 27.3453 24.552ZM30.7013 11.1398C30.8798 9.93981 31.7063 8.96008 32.9492 8.43891V14.4279C30.6511 13.6765 30.533 12.2695 30.7013 11.1398ZM37.0508 29.0771C39.6106 28.7075 41.5442 27.0117 41.5442 25.3542C41.5442 22.0086 37.5377 20.6588 37.0876 20.5071C37.0692 20.5009 37.0568 20.4967 37.0508 20.4945V29.0771Z" fill="var(--color-buyers-1)"/>
			<path fill-rule="evenodd" clip-rule="evenodd" d="M62.9394 56.477V48.9702L63.8468 49.5146L65.9572 45.9975L51.4746 37.3081L36.992 45.9977L39.1024 49.5148L40.0098 48.9704V56.4772H29.9904V48.9704L30.8978 49.5148L33.0081 45.9977L18.5254 37.3081L4.04277 45.9977L6.15316 49.5148L7.06057 48.9704V56.4772H0V60.5787H70V56.4772H62.9394V56.477ZM20.5762 56.477V51.4672H16.4746V56.477H11.1621V46.5093L18.5254 42.0912L25.8887 46.5093V56.477H20.5762ZM53.5254 51.4672V56.477H58.8379V46.5093L51.4746 42.0912L44.1113 46.5093V56.477H49.4238V51.4672H53.5254Z" fill="var(--color-buyers-2)"/>
			<path d="M0 65.8911H70V69.9927H0V65.8911Z" fill="var(--color-buyers-3)"/>
		</g>
	</symbol>
</svg>
